<?xml version="1.0" encoding="UTF-8"?>
<svg width="19px" height="18px" viewBox="0 0 19 18" version="1.1" xmlns="http://www.w3.org/2000/svg" xmlns:xlink="http://www.w3.org/1999/xlink">
    <title>Slice</title>
    <g id="Page-1" stroke="none" stroke-width="1" fill="none" fill-rule="evenodd">
        <path d="M9.5029,-0.00177 C9.7829,-0.00177 10.0029,0.22223 10.0029,0.49823 L10.0029,17.4982 C10.0029,17.7742 9.7829,17.9982 9.5029,17.9982 C9.2229,17.9982 9.0029,17.7742 9.0029,17.4982 C9.0029,14.9132 9.0029,3.08322 9.0029,0.49823 C9.0029,0.22223 9.2229,-0.00177 9.5029,-0.00177 L9.5029,-0.00177 Z M15.5029,1.99823 C15.7829,1.99823 16.0029,2.22223 16.0029,2.49823 L16.0029,15.4982 C16.0029,15.7742 15.7829,15.9982 15.5029,15.9982 C15.2229,15.9982 15.0029,15.7742 15.0029,15.4982 C15.0029,13.3202 15.0029,4.67622 15.0029,2.49823 C15.0029,2.22223 15.2229,1.99823 15.5029,1.99823 Z M6.50292,2.99822 C6.78292,2.99822 7.00292,3.22222 7.00292,3.49822 L7.00292,14.4982 C7.00292,14.6312 6.9529,14.7582 6.8529,14.8522 C6.7629,14.9452 6.63292,14.9982 6.50292,14.9982 C6.22292,14.9982 6.00292,14.7742 6.00292,14.4982 C6.00292,12.5462 6.00292,5.45022 6.00292,3.49822 C6.00292,3.22222 6.22292,2.99822 6.50292,2.99822 Z M18.5029,3.99822 C18.6329,3.99822 18.7629,4.05122 18.8529,4.14422 C18.9529,4.23822 19.0029,4.36522 19.0029,4.49822 L19.0029,13.4982 C19.0029,13.6312 18.9529,13.7582 18.8529,13.8522 C18.7629,13.9452 18.6329,13.9982 18.5029,13.9982 C18.3729,13.9982 18.2429,13.9452 18.1529,13.8522 C18.0529,13.7582 18.0029,13.6312 18.0029,13.4982 C18.0029,11.7912 18.0029,6.20522 18.0029,4.49822 C18.0029,4.36522 18.0529,4.23822 18.1529,4.14422 C18.2429,4.05122 18.3729,3.99822 18.5029,3.99822 Z M12.5029,4.99822 C12.7829,4.99822 13.0029,5.22222 13.0029,5.49822 L13.0029,12.4982 C13.0029,12.7742 12.7829,12.9982 12.5029,12.9982 C12.2229,12.9982 12.0029,12.7742 12.0029,12.4982 C12.0029,11.0622 12.0029,6.93422 12.0029,5.49822 C12.0029,5.22222 12.2229,4.99822 12.5029,4.99822 Z M3.50293,5.99822 C3.63293,5.99822 3.7629,6.05121 3.8529,6.14421 C3.9529,6.23821 4.00293,6.36522 4.00293,6.49822 L4.00293,11.4982 C4.00293,11.6312 3.9529,11.7582 3.8529,11.8522 C3.7629,11.9452 3.63293,11.9982 3.50293,11.9982 C3.37293,11.9982 3.24295,11.9452 3.15295,11.8522 C3.05295,11.7582 3.00293,11.6312 3.00293,11.4982 C3.00293,10.3682 3.00293,7.6282 3.00293,6.49822 C3.00293,6.36522 3.05295,6.23821 3.15295,6.14421 C3.24295,6.05121 3.37293,5.99822 3.50293,5.99822 Z M0.50293,6.99822 C0.63293,6.99822 0.7629,7.0512 0.8529,7.1442 C0.9529,7.2382 1.00293,7.3652 1.00293,7.4982 L1.00293,10.4982 C1.00293,10.6312 0.9529,10.7582 0.8529,10.8522 C0.7629,10.9452 0.63293,10.9982 0.50293,10.9982 C0.37293,10.9982 0.24295,10.9452 0.15295,10.8522 C0.05295,10.7582 0.00293,10.6312 0.00293,10.4982 C0.00293,9.7292 0.00293,8.2672 0.00293,7.4982 C0.00293,7.3652 0.05295,7.2382 0.15295,7.1442 C0.24295,7.0512 0.37293,6.99822 0.50293,6.99822 Z" id="Shape" fill="#E8E8E8"></path>
    </g>
</svg>